<mxfile host="app.diagrams.net" modified="2024-01-11T09:16:39.368Z" agent="Mozilla/5.0 (Macintosh; Intel Mac OS X 10.15; rv:121.0) Gecko/20100101 Firefox/121.0" version="22.1.18" etag="JdVRmoHlmNTShAMmgQPX" type="github">
  <diagram name="第 1 页" id="Y4bL43wloZpj7LPQs5rp">
    <mxGraphModel>
      <root>
        <mxCell id="0" />
        <mxCell id="1" parent="0" />
      </root>
    </mxGraphModel>
  </diagram>
</mxfile>
